 General
      Complete name : The.Wizard.Of.Oz.1939.BDRip.H264.AAC.5.1ch.Gopo.mp4
      Format : MPEG-4
      Format profile : Base Media
      Codec ID : isom
      File size : 1.55 GiB
      Duration : 1h 41mn
      Overall bit rate : 2 185 Kbps
      Encoded date : UTC 2009-12-13 15:09:33
      Tagged date : UTC 2009-12-13 15:09:33
      Writing application : Yamb 2.1.0.0 [http://yamb.unite-video.com]
   Video #2
      ID : 2
      Format : AVC
      Format/Info : Advanced Video Codec
      Format profile : High@L4.1
      Format settings, CABAC : Yes
      Format settings, ReFrames : 2 frames
      Codec ID : avc1
      Codec ID/Info : Advanced Video Coding
      Duration : 1h 41mn
      Bit rate mode : Variable
      Bit rate : 1 819 Kbps
      Maximum bit rate : 6 064 Kbps
      Width : 1 280 pixels
      Height : 928 pixels
      Display aspect ratio : 1.379
      Frame rate mode : Constant
      Frame rate : 23.976 fps
      Resolution : 24 bits
      Colorimetry : 4:2:0
      Scan type : Progressive
      Bits/(Pixel*Frame) : 0.064
      Stream size : 1.29 GiB (83%)
      Writing library : x264 core 79 r1360 528c100
      Encoding settings : cabac=1 / ref=2 / deblock=1:0:0 / analyse=0x3:0x113 / me=umh / subme=8 / psy=1 / psy_rd=1.0:0.0 / mixed_ref=1 / me_range=16 / chroma_me=1 / trellis=2 / 8x8dct=1 / cqm=0 / deadzone=21,11 / chroma_qp_offset=-2 / threads=3 / nr=0 / decimate=1 / mbaff=0 / constrained_intra=0 / bframes=3 / b_pyramid=0 / b_adapt=2 / b_bias=0 / direct=3 / wpredb=1 / wpredp=2 / keyint=250 / keyint_min=25 / scenecut=40 / rc_lookahead=30 / rc=2pass / mbtree=1 / bitrate=1819 / ratetol=1.0 / qcomp=0.50 / qpmin=10 / qpmax=51 / qpstep=4 / cplxblur=20.0 / qblur=0.5 / vbv_maxrate=24000 / vbv_bufsize=24000 / ip_ratio=1.10 / aq=1:1.00
      Encoded date : UTC 2009-12-12 17:29:43
      Tagged date : UTC 2009-12-13 15:12:18
   Audio #1
      ID : 1
      Format : AAC
      Format/Info : Advanced Audio Codec
      Format version : Version 4
      Format profile : LC
      Format settings, SBR : No
      Codec ID : 40
      Duration : 1h 41mn
      Bit rate mode : Variable
      Bit rate : 362 Kbps
      Maximum bit rate : 418 Kbps
      Channel(s) : 6 channels
      Channel positions : Front: L C R, Rear: L R, LFE
      Sampling rate : 48.0 KHz
      Resolution : 16 bits
      Stream size : 264 MiB (17%)
      Encoded date : UTC 2009-12-13 15:09:33
      Tagged date : UTC 2009-12-13 15:12:18
	Sample : YES
	Subtitle : English,Romanian

PLOT

In this charming film based on the popular L.Frank Baum stories, Dorothy and her dog Toto are caught in a tornado's path and somehow end up in the land of Oz. Here she meets some memorable friends and foes in her journey to meet the Wizard of Oz who everyone says can help her return home and possibly grant her new friends their goals of a brain, heart and courage.
Director: Victor Fleming
CASTING 
     
     Judy Garland	... 	Dorothy Gale
	Frank Morgan	... 	Professor Marvel / The Gatekeeper / The Carriage Driver / The Doorman / The Wizard of Oz
	Ray Bolger	... 	Hunk / The Scarecrow
	Bert Lahr	... 	Zeke / The Cowardly Lion
	Jack Haley	... 	Hickory / The Tin Man
	Billie Burke	... 	Glinda
	Margaret Hamilton	... 	Elmira Gulch / The Wicked Witch of the West / The Wicked Witch of the East
	Charley Grapewin	... 	Uncle Henry
	Pat Walshe	... 	Nikko
	Clara Blandick	... 	Auntie Em
	Terry	... 	Toto (as Toto)
	The Singer Midgets	... 	The Munchkins (also as The Munchkins)

SOURCE: The.Wizard.Of.Oz.1939.720P.BDRip.X264-TLF.mkv

Notes: For best performance I suggest you to use KMPlayer(find it with google) for playback
I haven't tested the movies on a PS3 or Xbox or other devices than PC because I don't own one of them but feel free to test them if you have the oportunity.
